PathFileType	4	(X/Y/Z)	6_coords_data.trc
DataRate	CameraRate	NumFrames	NumMarkers	Units	OrigDataRate	OrigDataStartFrame	OrigNumFrames
30.0	30.0	8	21	m	30.0	1	55
Frame#	Time	THUMB_TIP	THUMB_IP	THUMB_MCP	THUMB_CMC	INDEX_TIP	INDEX_DIP	INDEX_PIP	INDEX_MCP	MIDDLE_TIP	MIDDLE_DIP	MIDDLE_PIP	MIDDLE_MCP	RING_TIP	RING_DIP	RING_PIP	RING_MCP	PINKY_TIP	PINKY_DIP	PINKY_PIP	PINKY_MCP	WRIST
X1	Y1	Z1	X2	Y2	Z2	X3	Y3	Z3	X4	Y4	Z4	X5	Y5	Z5	X6	Y6	Z6	X7	Y7	Z7	X8	Y8	Z8	X9	Y9	Z9	X10	Y10	Z10	X11	Y11	Z11	X12	Y12	Z12	X13	Y13	Z13	X14	Y14	Z14	X15	Y15	Z15	X16	Y16	Z16	X17	Y17	Z17	X18	Y18	Z18	X19	Y19	Z19	X20	Y20	Z20	X21	Y21	Z21
0	-2.749317978547796e-18	0.46256003981194826	-0.0272673652675961	-0.1740871054281507	0.46977487481521574	-0.03408402228328622	-0.1533632220322698	0.46322533151352696	-0.034098876307007364	-0.1229342348342495	0.4690359810457042	-0.030241968588137547	-0.07887460915651212	0.5633194347603768	0.025755871149264475	-0.17868999656593543	0.5523510438149691	0.017915131083449998	-0.16659796632742574	0.5372806260645693	0.006524067984490345	-0.15001074162574793	0.5111046332535083	-0.006797026678806328	-0.11917242242176451	0.594808268973854	0.04499606090573238	-0.13787402826108808	0.5802008552381225	0.03600942807669394	-0.1320547590329796	0.5567762442120192	0.02269607401610374	-0.1209438746427462	0.5209765184140291	0.004286272146723613	-0.10156329805382858	0.6022250952804555	0.04396104813836865	-0.10013411447242176	0.5875320851005902	0.03423031054196757	-0.09633566772613739	0.5671629688668104	0.020850492835178258	-0.09121125937122854	0.5320547513919407	0.0037111703709457045	-0.08080080668153661	0.6006352432773995	0.02524100824659714	-0.05100224375019191	0.585965933336915	0.016611606458377337	-0.05283111516378963	0.5664970964495162	0.009112603786431417	-0.05518512624660271	0.5327921597315041	-0.0026385338425886085	-0.060359240302036155	0.462283081001861	-0.023011742144276925	-0.051989820119430985
1	0.03333333333333339	0.46280141223271065	-0.026552303839061153	-0.1742554838243932	0.46980452499531067	-0.033223381248179584	-0.1534119443496337	0.4635787481269813	-0.033290137613326	-0.12291513720571307	0.46935038019041386	-0.030274766913577666	-0.07878480973278967	0.5633747693340432	0.026162088437537756	-0.17858913508553662	0.5523547493917657	0.018208284374653827	-0.16661849761708664	0.5372060161661364	0.007065961213636784	-0.14993394340565558	0.5110870934006578	-0.006281555701412533	-0.11905868211488363	0.594843867927944	0.045356183633329716	-0.13773207503047005	0.5802947488326741	0.03640390701501017	-0.13171710396647185	0.55686459456096	0.023040044236288804	-0.120678780160966	0.5210331668119103	0.004765611099582179	-0.10122879815591879	0.6020507468355529	0.04413188278347724	-0.10007962524952266	0.5874408130438391	0.0342690402296868	-0.09630150781343388	0.5670863149429547	0.02086841363129288	-0.0911733899490009	0.5319867595361004	0.003453298264174731	-0.0812006370195868	0.600366992805483	0.025845911705290603	-0.050795669755168193	0.5855074346375643	0.017576234476936903	-0.052746559191575226	0.566220718814448	0.009667591272033982	-0.05525414257321892	0.5326768597762183	-0.002400041702034783	-0.060737317404148505	0.462283081001861	-0.023011742144276925	-0.051989820119430985
2	0.06666666666666676	0.4629804808572915	-0.0259985057710308	-0.17436997727067088	0.46981548732465994	-0.032560743590250296	-0.15343627904520107	0.4638265843273567	-0.03265921761689328	-0.12289215778177343	0.46957105174936586	-0.03030188664898592	-0.07871825049766257	0.5633881769185969	0.026446952824669023	-0.17853875148455528	0.5523350611984382	0.01840992760857707	-0.16665452418309873	0.537135403279575	0.007459513175120724	-0.1498894218605632	0.5110692242101303	-0.005903205793104438	-0.11897618611119712	0.5948487085873699	0.04562327690152357	-0.1376534621078669	0.5803500491433174	0.03669427700284733	-0.13148403465186867	0.5569200129036417	0.023289864587015652	-0.1204947362396048	0.5210715372844643	0.005111976968203424	-0.1009857865369918	0.6018936463217806	0.04429099255796354	-0.1000367069552564	0.5873517997820416	0.034322110721294985	-0.09627424843173446	0.5670156700115501	0.020895426054485022	-0.09114141843106463	0.5319350130261783	0.003257440005098311	-0.0814993342374713	0.6001599393980012	0.02627191800855977	-0.05067849487290066	0.5851607531550476	0.018278760168287778	-0.05271167951520134	0.566011990057163	0.01007272650145763	-0.05531895822679733	0.5325890823078024	-0.0022251424882122617	-0.061024666499278235	0.4622830810018609	-0.023011742144276925	-0.051989820119430985
3	0.10000000000000014	0.4631095958209164	-0.02560230749592929	-0.17444466164718042	0.46981611715122307	-0.032088282347567554	-0.1534457402017809	0.46398807819828636	-0.032200793157782126	-0.12287056557790288	0.4697174590957145	-0.030324743576017665	-0.07867164440895413	0.5633669294696948	0.026627857792302367	-0.1785342058576685	0.55229603012222	0.018533746663323858	-0.16670540403035622	0.537068776592649	0.007723336642954992	-0.1498746102838426	0.5110512106017437	-0.005644783718435797	-0.11892278138937729	0.5948321283458201	0.04581065251385541	-0.13762620917522533	0.5803748304004543	0.036894837386927115	-0.1313417221841215	0.5569490949938709	0.023459339568438042	-0.12038125371648178	0.5210949460472457	0.0053466430448680935	-0.10082215995019816	0.6017578925823689	0.0444302180388505	-0.10001459349965891	0.5872692750331338	0.03437997088880762	-0.09626326123830764	0.5669534257116303	0.02092488233771672	-0.09112450288358054	0.5318969561261416	0.0031134042506064663	-0.08171620747186553	0.6000206359233711	0.026541966935627492	-0.050640845452755434	0.5849208283991094	0.01875362209010145	-0.05272351136389386	0.5658670381400895	0.010346465535336802	-0.05538524283587826	0.532525458977154	-0.0021032115185153355	-0.06123572069469496	0.4622830810018609	-0.023011742144276925	-0.051989820119430985
4	0.13333333333333353	0.46319786552303366	-0.02535268264281343	-0.17449026254504182	0.4698110554153372	-0.03179039960427199	-0.15344693771809287	0.4640785461142243	-0.03190168165584495	-0.12285370393319117	0.4698043239655003	-0.03034419806347921	-0.07864194403995295	0.5633178572652975	0.0267210715091577	-0.17856946291161263	0.5522415282810531	0.018592468879698454	-0.16676943089787907	0.5370059537636651	0.00787622738467042	-0.14988602868311923	0.5110327496972296	-0.005488443103787044	-0.11889547613466914	0.5948013317837322	0.0459297230928416	-0.13763997320386534	0.5803757023707776	0.03701859813116892	-0.13127655682918477	0.5569570596158122	0.02356107182924727	-0.1203279629766211	0.5211057248410159	0.005488924310121379	-0.1007262487681026	0.6016465059269022	0.04454349604456809	-0.10001708424818581	0.5871966721966754	0.034435041961143886	-0.09627256008454282	0.5669010612901452	0.020952249353753283	-0.09112644888900592	0.5318701666083998	0.003013192747752247	-0.0818664542948846	0.5999483053643397	0.026677263268489737	-0.0506711861297659	0.584778151249664	0.019033031889575613	-0.052776453514829624	0.5657798742094374	0.010506568637820068	-0.05545542961014266	0.5324826541789313	-0.002025169871702981	-0.06138283369363551	0.4622830810018609	-0.023011742144276925	-0.051989820119430985
5	0.1666666666666669	0.4632525681780809	-0.025232920317663998	-0.17451462872627493	0.4698027768231766	-0.031645525310738165	-0.1534439556494955	0.46411094983834444	-0.03174265984815361	-0.12284307869382016	0.4698433430122547	-0.030360754091604658	-0.07862633972564514	0.5632474851996909	0.026742023603204323	-0.1786374668185406	0.552175314843762	0.018598114696660728	-0.1668440876873834	0.5369466726392552	0.007937124174502874	-0.14991950288616684	0.511013191092809	-0.005415884185807518	-0.11889068085551902	0.5947619648072056	0.045990505426678374	-0.137685724188246	0.5803583173797207	0.03707764643409395	-0.1312751169344038	0.5569482243129504	0.023606807314013434	-0.12032461073578132	0.5211055431064925	0.005556778498286841	-0.10068672427405456	0.6015615806283994	0.04462625812299936	-0.10004428547136507	0.5871367338795432	0.03448115828922127	-0.09630252844629084	0.5668593312427475	0.020974420717188025	-0.09114743761629665	0.5318523299956515	0.0029503130807766453	-0.0819625455866162	0.5999371061529247	0.026697803438015977	-0.0507569060424965	0.5847201334840212	0.01914746836020509	-0.05286313086587546	0.565742924782621	0.01057034169261628	-0.05552967676490661	0.5324573787745862	-0.001982997519616614	-0.061476907428805905	0.4622830810018609	-0.023011742144276925	-0.051989820119430985
6	0.20000000000000023	0.46327997116313635	-0.025222274415047985	-0.1745234269789012	0.46979251679158285	-0.03162786208979962	-0.15343894937146513	0.4640968651748476	-0.031700230339713475	-0.12283871545900643	0.46984434399419006	-0.03037468011900679	-0.07862220944786175	0.5631621849909041	0.026705557817420456	-0.17873046943422083	0.5521011234329413	0.018562212329888417	-0.16692628197884518	0.5368906851894615	0.00792506172463281	-0.14997035592208263	0.5109916605761694	-0.00540851289218125	-0.11890441949618452	0.5947186126953591	0.04600208274528894	-0.13775537921276426	0.5803277504822696	0.03708345585396344	-0.1313241134635359	0.556926361066721	0.02360772616506912	-0.12036102846095975	0.5210956528316949	0.005567290507933809	-0.10069250157974158	0.60150444026699	0.044675020842047775	-0.10009386704389914	0.5870916197201803	0.03451319200937708	-0.09635116231857505	0.566828441526398	0.0209892458558526	-0.091185267534165	0.5318412009384779	0.002919284863397986	-0.08201518902991167	0.599977923860181	0.026622802019104497	-0.05088468235121074	0.584732218289873	0.019126200993553666	-0.05297500163954655	0.5657475377650005	0.010554822101951244	-0.05560661488338109	0.532446383079864	-0.0019693653980017434	-0.061527871093226605	0.462283081001861	-0.023011742144276925	-0.051989820119430985
7	0.23333333333333361	0.4632858163615732	-0.025297454226071436	-0.17452091691989702	0.4697808404500532	-0.031708950444331085	-0.15343283074942377	0.4640470990253508	-0.03174820720299132	-0.12283965065676994	0.4698160945492039	-0.03038608697881584	-0.07862705834258127	0.5630683140594266	0.026626151506542795	-0.17884030157049352	0.5520227454113563	0.018495981743838374	-0.1670125480699183	0.5368378373187275	0.007859131457547464	-0.15003356649841487	0.5109671620622968	-0.005447565639302487	-0.11893250432766267	0.5946752230632586	0.04597300327132614	-0.13784144670868226	0.5802887823864104	0.037047140056275074	-0.13141032779221634	0.556894960823997	0.023574681065304692	-0.12042709004360186	0.5210770748189453	0.005537054939765196	-0.10073264902882875	0.6014757962118494	0.044687078336112296	-0.10016199157953332	0.5870630190982781	0.03452677284758021	-0.09641498634145015	0.5668082105445585	0.020995195651406284	-0.09123626757749337	0.5318345653534517	0.0029152730980630537	-0.08203401912878883	0.6000597708966395	0.02647103111684468	-0.05104072088916589	0.5847987679017626	0.01899777083940135	-0.053102799553024216	0.5657844342482744	0.010476919920791361	-0.0556839299907686	0.5324464415318152	-0.0019773553533039	-0.06154504934072069	0.4622830810018609	-0.023011742144276925	-0.051989820119430985
